# xmcd
#
# Track frame offsets: 
#        150
#        18384
#        39421
#        53088
#        66751
#        79286
#        98349
#        113480
#        128760
#        133529
#        158351
#        176982
#        189634
#        205195
#        219282
#
# Disc length: 3041 seconds
#
# Revision: 0
# Processed by: cddbd v1.5.2PL0 Copyright (c) Steve Scherf et al.
# Submitted via: ExactAudioCopy v1.2
#
DISCID=be0bdf0f
DTITLE=Hobo - Hé, Magyar Joe! (Disc2)
DYEAR=2018
DGENRE=Blues
TTITLE0=Szürkület
TTITLE1=Emlékezés naponta
TTITLE2=Az életfogytosok bibliája
TTITLE3=A pórul járt kasszafúró története
TTITLE4=A smasszerek tízparancsolata
TTITLE5=Isten keresése
TTITLE6=Az az átkozott vasárnap
TTITLE7=A megbánás
TTITLE8=Nem bírom tovább
TTITLE9=Új Magyarország
TTITLE10=Vakember blues
TTITLE11=Utcazene
TTITLE12=A részegesek testvérisége
TTITLE13=Az angyalok is itt járnak közöttünk
TTITLE14=A temetőben
EXTD=
EXTT0=
EXTT1=
EXTT2=
EXTT3=
EXTT4=
EXTT5=
EXTT6=
EXTT7=
EXTT8=
EXTT9=
EXTT10=
EXTT11=
EXTT12=
EXTT13=
EXTT14=
PLAYORDER=
